<svg width="32" height="32" viewBox="0 0 32 32" fill="none" xmlns="http://www.w3.org/2000/svg">
<path d="M16 0C7.1776 0 0 7.1776 0 16C0 24.8224 7.1776 32 16 32C24.8224 32 32 24.8224 32 16C32 7.1776 24.8224 0 16 0ZM16 28.8C8.9424 28.8 3.2 23.0576 3.2 16C3.2 8.9424 8.9424 3.2 16 3.2C23.0576 3.2 28.8 8.9424 28.8 16C28.8 23.0576 23.0576 28.8 16 28.8Z" fill="#BFBFBF"/>
<path d="M19.8985 15.1183C20.2705 14.39 20.5 13.5617 20.5 12.6667C20.5 10.4967 19.2415 8.66333 17.5 7.97333V7.66667C17.5 6.74667 16.828 6 16 6C15.172 6 14.5 6.74667 14.5 7.66667H13.1245H11.5C10.672 7.66667 10 8.41333 10 9.33333C10 10.2533 10.672 11 11.5 11V14.3333V17.6667V21C10.672 21 10 21.7467 10 22.6667C10 23.5867 10.672 24.3333 11.5 24.3333H13H14.5C14.5 25.2533 15.172 26 16 26C16.828 26 17.5 25.2533 17.5 24.3333C19.981 24.3333 22 22.09 22 19.3333C22 17.5583 21.157 16.005 19.8985 15.1183ZM14.5 11H16C16.8265 11 17.5 11.7483 17.5 12.6667C17.5 13.585 16.8265 14.3333 16 14.3333H14.5V11ZM17.5 21H14.5V17.6667H16H17.5C18.3265 17.6667 19 18.415 19 19.3333C19 20.2517 18.3265 21 17.5 21Z" fill="#BFBFBF"/>
</svg>
