<svg width="32" height="32" viewBox="0 0 32 32" fill="none" xmlns="http://www.w3.org/2000/svg">
<path d="M13.3335 1.33328H2.66683C2.31321 1.33328 1.97407 1.47376 1.72402 1.72381C1.47397 1.97386 1.3335 2.31299 1.3335 2.66662V13.3333C1.3335 13.6869 1.47397 14.026 1.72402 14.2761C1.97407 14.5261 2.31321 14.6666 2.66683 14.6666H13.3335C13.6871 14.6666 14.0263 14.5261 14.2763 14.2761C14.5264 14.026 14.6668 13.6869 14.6668 13.3333V2.66662C14.6668 2.31299 14.5264 1.97386 14.2763 1.72381C14.0263 1.47376 13.6871 1.33328 13.3335 1.33328ZM12.0002 11.9999H4.00016V3.99995H12.0002V11.9999Z" fill="#BFBFBF"/>
<path d="M29.3335 1.33328H18.6668C18.3132 1.33328 17.9741 1.47376 17.724 1.72381C17.474 1.97386 17.3335 2.31299 17.3335 2.66662V13.3333C17.3335 13.6869 17.474 14.026 17.724 14.2761C17.9741 14.5261 18.3132 14.6666 18.6668 14.6666H29.3335C29.6871 14.6666 30.0263 14.5261 30.2763 14.2761C30.5264 14.026 30.6668 13.6869 30.6668 13.3333V2.66662C30.6668 2.31299 30.5264 1.97386 30.2763 1.72381C30.0263 1.47376 29.6871 1.33328 29.3335 1.33328ZM28.0002 11.9999H20.0002V3.99995H28.0002V11.9999Z" fill="#BFBFBF"/>
<path d="M13.3335 17.3333H2.66683C2.31321 17.3333 1.97407 17.4738 1.72402 17.7238C1.47397 17.9739 1.3335 18.313 1.3335 18.6666V29.3333C1.3335 29.6869 1.47397 30.0261 1.72402 30.2761C1.97407 30.5262 2.31321 30.6666 2.66683 30.6666H13.3335C13.6871 30.6666 14.0263 30.5262 14.2763 30.2761C14.5264 30.0261 14.6668 29.6869 14.6668 29.3333V18.6666C14.6668 18.313 14.5264 17.9739 14.2763 17.7238C14.0263 17.4738 13.6871 17.3333 13.3335 17.3333ZM12.0002 28H4.00016V20H12.0002V28Z" fill="#BFBFBF"/>
<path d="M29.3335 17.3333H18.6668C18.3132 17.3333 17.9741 17.4738 17.724 17.7238C17.474 17.9739 17.3335 18.313 17.3335 18.6666V29.3333C17.3335 29.6869 17.474 30.0261 17.724 30.2761C17.9741 30.5262 18.3132 30.6666 18.6668 30.6666H29.3335C29.6871 30.6666 30.0263 30.5262 30.2763 30.2761C30.5264 30.0261 30.6668 29.6869 30.6668 29.3333V18.6666C30.6668 18.313 30.5264 17.9739 30.2763 17.7238C30.0263 17.4738 29.6871 17.3333 29.3335 17.3333ZM28.0002 28H20.0002V20H28.0002V28Z" fill="#BFBFBF"/>
</svg>
