<svg width="24" height="24" viewBox="0 0 24 24" fill="none" xmlns="http://www.w3.org/2000/svg">
<path d="M11.7188 0C9.40101 0 7.13531 0.687293 5.20817 1.97497C3.28103 3.26264 1.77901 5.09286 0.892042 7.23418C0.00507766 9.3755 -0.226993 11.7318 0.225178 14.005C0.677348 16.2782 1.79345 18.3663 3.43235 20.0052C5.07124 21.6441 7.15933 22.7602 9.43254 23.2123C11.7058 23.6645 14.062 23.4324 16.2033 22.5455C18.3446 21.6585 20.1749 20.1565 21.4625 18.2293C22.7502 16.3022 23.4375 14.0365 23.4375 11.7188C23.4338 8.61189 22.1979 5.63334 20.0011 3.43645C17.8042 1.23957 14.8256 0.00372154 11.7188 0ZM10.9375 5.46875C10.9375 5.26155 11.0198 5.06284 11.1663 4.91632C11.3128 4.76981 11.5116 4.6875 11.7188 4.6875C11.926 4.6875 12.1247 4.76981 12.2712 4.91632C12.4177 5.06284 12.5 5.26155 12.5 5.46875V10.9375C12.5 11.1447 12.4177 11.3434 12.2712 11.4899C12.1247 11.6364 11.926 11.7188 11.7188 11.7188C11.5116 11.7188 11.3128 11.6364 11.1663 11.4899C11.0198 11.3434 10.9375 11.1447 10.9375 10.9375V5.46875ZM11.7188 18.75C9.85484 18.7471 8.06809 18.0054 6.75011 16.6874C5.43212 15.3694 4.6904 13.5827 4.68751 11.7188C4.68409 10.6644 4.91996 9.623 5.37736 8.67301C5.83476 7.72302 6.50177 6.88921 7.32813 6.23437C7.4068 6.16012 7.50004 6.103 7.60193 6.06666C7.70383 6.03031 7.81216 6.01553 7.92007 6.02324C8.02798 6.03094 8.13311 6.06098 8.2288 6.11144C8.32449 6.1619 8.40866 6.23168 8.47598 6.31637C8.5433 6.40106 8.59229 6.49881 8.61986 6.60342C8.64743 6.70803 8.65297 6.81723 8.63613 6.92409C8.61929 7.03095 8.58045 7.13316 8.52205 7.22422C8.46365 7.31529 8.38697 7.39324 8.29688 7.45312C7.41339 8.16181 6.77173 9.12732 6.46052 10.2163C6.1493 11.3053 6.18387 12.4641 6.55947 13.5326C6.93507 14.6011 7.63315 15.5266 8.55732 16.1814C9.48149 16.8361 10.5862 17.1878 11.7188 17.1878C12.8514 17.1878 13.956 16.8361 14.8802 16.1814C15.8044 15.5266 16.5024 14.6011 16.878 13.5326C17.2536 12.4641 17.2882 11.3053 16.977 10.2163C16.6658 9.12732 16.0241 8.16181 15.1406 7.45312C14.9983 7.31877 14.9116 7.13589 14.8976 6.94067C14.8837 6.74544 14.9435 6.55209 15.0653 6.39887C15.1871 6.24565 15.362 6.14373 15.5553 6.11327C15.7487 6.08281 15.9464 6.12603 16.1094 6.23437C16.9357 6.88921 17.6027 7.72302 18.0601 8.67301C18.5175 9.623 18.7534 10.6644 18.75 11.7188C18.7471 13.5827 18.0054 15.3694 16.6874 16.6874C15.3694 18.0054 13.5827 18.7471 11.7188 18.75Z" fill="#363636"/>
</svg>
