<svg width="20" height="20" viewBox="0 0 20 20" fill="none" xmlns="http://www.w3.org/2000/svg">
<path d="M10.7594 6.71052C11.0184 6.38731 10.9664 5.91529 10.6432 5.65624C10.32 5.3972 9.84798 5.44922 9.58893 5.77243L10.7594 6.71052ZM5.25917 12.374L5.8272 12.8637C5.83305 12.8569 5.83879 12.85 5.8444 12.843L5.25917 12.374ZM5.11667 12.7223L4.36812 12.6735L4.36747 12.6876L5.11667 12.7223ZM5 15.2415L4.2508 15.2068C4.24908 15.244 4.25013 15.2813 4.25396 15.3184L5 15.2415ZM5.65583 15.814L5.68035 16.5636C5.73037 16.5619 5.7801 16.5553 5.82879 16.5438L5.65583 15.814ZM8.15583 15.2215L8.32881 15.9514L8.34045 15.9484L8.15583 15.2215ZM8.47667 15.0181L9.05527 15.4954L9.06177 15.4873L8.47667 15.0181ZM14.0951 9.21068C14.3542 8.88753 14.3023 8.4155 13.9792 8.15637C13.6561 7.89724 13.184 7.94913 12.9249 8.27227L14.0951 9.21068ZM9.59159 5.77223C9.33244 6.09536 9.3843 6.56739 9.70743 6.82655C10.0306 7.08571 10.5026 7.03384 10.7617 6.71072L9.59159 5.77223ZM11.5 4.59148L12.0851 5.06072C12.0949 5.04843 12.1044 5.03583 12.1135 5.02294L11.5 4.59148ZM12.8575 4.32481L13.3373 3.74837C13.3134 3.72849 13.2883 3.71011 13.2622 3.69334L12.8575 4.32481ZM14.7217 5.87648L15.2525 5.34663C15.2362 5.33033 15.2192 5.31478 15.2015 5.30003L14.7217 5.87648ZM15.0024 6.56054L15.7524 6.56466V6.56466L15.0024 6.56054ZM14.7142 7.24148L14.1892 6.70583C14.1679 6.72667 14.1479 6.74875 14.1293 6.77196L14.7142 7.24148ZM12.9251 8.27196C12.6658 8.59497 12.7175 9.06703 13.0405 9.32633C13.3635 9.58564 13.8356 9.534 14.0949 9.21099L12.9251 8.27196ZM10.9184 6.13033C10.857 5.72069 10.4752 5.43837 10.0655 5.49976C9.65588 5.56114 9.37356 5.94298 9.43495 6.35262L10.9184 6.13033ZM13.611 9.48465C14.0214 9.42888 14.3089 9.05094 14.2532 8.6405C14.1974 8.23006 13.8195 7.94254 13.409 7.9983L13.611 9.48465ZM9.58893 5.77243L4.67393 11.9049L5.8444 12.843L10.7594 6.71052L9.58893 5.77243ZM4.69114 11.8842C4.50059 12.1052 4.38725 12.3823 4.36826 12.6735L5.86508 12.7711C5.86285 12.8053 5.84955 12.8378 5.8272 12.8637L4.69114 11.8842ZM4.36747 12.6876L4.2508 15.2068L5.7492 15.2762L5.86586 12.757L4.36747 12.6876ZM4.25396 15.3184C4.32876 16.0436 4.95171 16.5874 5.68035 16.5636L5.63131 15.0644C5.68992 15.0625 5.74003 15.1062 5.74604 15.1645L4.25396 15.3184ZM5.82879 16.5438L8.32879 15.9513L7.98287 14.4917L5.48287 15.0842L5.82879 16.5438ZM8.34045 15.9484C8.62079 15.8772 8.87116 15.7185 9.05522 15.4954L7.89812 14.5409C7.91694 14.5181 7.94254 14.5018 7.97121 14.4946L8.34045 15.9484ZM9.06177 15.4873L14.0951 9.21068L12.9249 8.27227L7.89156 14.5489L9.06177 15.4873ZM10.7617 6.71072L12.0851 5.06072L10.9149 4.12223L9.59159 5.77223L10.7617 6.71072ZM12.1135 5.02294C12.1905 4.91343 12.3401 4.88404 12.4528 4.95627L13.2622 3.69334C12.4731 3.18768 11.4257 3.39342 10.8865 4.16001L12.1135 5.02294ZM12.3777 4.90125L14.2419 6.45292L15.2015 5.30003L13.3373 3.74837L12.3777 4.90125ZM14.1908 6.40632C14.2306 6.44613 14.2528 6.50017 14.2525 6.55642L15.7524 6.56466C15.7549 6.10822 15.5749 5.66969 15.2525 5.34663L14.1908 6.40632ZM14.2525 6.55642C14.2521 6.61267 14.2294 6.66646 14.1892 6.70583L15.2391 7.77712C15.5651 7.45762 15.7499 7.0211 15.7524 6.56466L14.2525 6.55642ZM14.1293 6.77196L12.9251 8.27196L14.0949 9.21099L15.299 7.71099L14.1293 6.77196ZM9.43495 6.35262C9.73621 8.36298 11.5967 9.75834 13.611 9.48465L13.409 7.9983C12.2077 8.16154 11.0981 7.32933 10.9184 6.13033L9.43495 6.35262Z" fill="black"/>
</svg>
