<?xml version="1.0" encoding="utf-8"?>
<!-- Generator: Adobe Illustrator 26.3.1, SVG Export Plug-In . SVG Version: 6.00 Build 0)  -->
<svg version="1.1" id="Layer_1" xmlns="http://www.w3.org/2000/svg" xmlns:xlink="http://www.w3.org/1999/xlink" x="0px" y="0px"
	 viewBox="0 0 32 32" style="enable-background:new 0 0 32 32;" xml:space="preserve">
<style type="text/css">
	.st0{fill:#BFBFBF;}
</style>
<g>
	<path class="st0" d="M16,3.05C8.85,3.05,3.05,8.85,3.05,16S8.85,28.95,16,28.95c7.15,0,12.95-5.8,12.95-12.95S23.15,3.05,16,3.05z
		 M16,6.92c2.37,0,4.28,1.92,4.28,4.28c0,2.37-1.92,4.28-4.28,4.28c-2.37,0-4.28-1.92-4.28-4.28C11.72,8.84,13.63,6.92,16,6.92z
		 M16,25.56c-2.36,0-4.52-0.86-6.19-2.28c-0.41-0.35-0.64-0.85-0.64-1.39c0-2.4,1.94-4.32,4.34-4.32h4.98c2.4,0,4.33,1.92,4.33,4.32
		c0,0.53-0.23,1.04-0.64,1.39C20.52,24.7,18.36,25.56,16,25.56z"/>
</g>
</svg>
