<svg width="32" height="32" viewBox="0 0 32 32" fill="none" xmlns="http://www.w3.org/2000/svg">
<g clip-path="url(#clip0_127_301)">
<path d="M29.4707 6.68945L22.9331 0.268555C22.7578 0.0964356 22.522 0 22.2761 0H5.74805C3.81934 0 2.25 1.56909 2.25 3.49805V28.502C2.25 30.4307 3.81909 32 5.74805 32H26.2532C28.1819 32 29.7512 30.4309 29.7512 28.502V7.3584C29.7512 7.10669 29.6501 6.86572 29.4707 6.68945ZM23.2136 3.17236L26.5212 6.4209H23.5117C23.3474 6.4209 23.2136 6.28711 23.2136 6.1228V3.17236ZM26.2532 30.125H5.74805C4.85327 30.125 4.125 29.397 4.125 28.502V3.49805C4.125 2.60303 4.85303 1.875 5.74805 1.875H21.3389V6.1228C21.3389 7.32104 22.3137 8.2959 23.512 8.2959H27.8762V28.502C27.8762 29.397 27.1482 30.125 26.2532 30.125Z" fill="#BFBFBF"/>
<path d="M22.509 14.875H9.29321C8.77539 14.875 8.35571 15.2947 8.35571 15.8125C8.35571 16.3303 8.77539 16.75 9.29321 16.75H22.509C23.0269 16.75 23.4465 16.3303 23.4465 15.8125C23.4465 15.2947 23.0269 14.875 22.509 14.875Z" fill="#BFBFBF"/>
<path d="M9.29321 20.5H20.0691C20.5869 20.5 21.0066 20.0803 21.0066 19.5625C21.0066 19.0447 20.5869 18.625 20.0691 18.625H9.29321C8.77539 18.625 8.35571 19.0447 8.35571 19.5625C8.35571 20.0803 8.77539 20.5 9.29321 20.5Z" fill="#BFBFBF"/>
<path d="M21.3691 22.375H9.29321C8.77539 22.375 8.35571 22.7947 8.35571 23.3125C8.35571 23.8303 8.77539 24.25 9.29321 24.25H21.3691C21.8867 24.25 22.3066 23.8303 22.3066 23.3125C22.3066 22.7947 21.8867 22.375 21.3691 22.375Z" fill="#BFBFBF"/>
</g>
<defs>
<clipPath id="clip0_127_301">
<rect width="32" height="32" fill="white"/>
</clipPath>
</defs>
</svg>
