<svg width="32" height="32" viewBox="0 0 32 32" fill="none" xmlns="http://www.w3.org/2000/svg">
<g clip-path="url(#clip0_127_275)">
<path d="M30.5946 18.5434L29.2634 17.4476C28.3515 16.6969 28.3531 15.3016 29.2634 14.5524L30.5946 13.4566C31.5419 12.6766 31.7843 11.3393 31.1708 10.2764L28.5421 5.72356C27.9285 4.66081 26.6489 4.20206 25.5 4.63244L23.8853 5.23737C22.7793 5.65162 21.5718 4.95294 21.378 3.78981L21.0946 2.08894C20.8928 0.878563 19.8558 0 18.6286 0H13.3714C12.1443 0 11.1071 0.878562 10.9054 2.089L10.6219 3.78981C10.4278 4.955 9.21863 5.65094 8.11469 5.23744L6.5 4.63244C5.35106 4.20206 4.07156 4.66088 3.45788 5.72356L0.829314 10.2764C0.215752 11.3391 0.458002 12.6765 1.40544 13.4565L2.73663 14.5524C3.64863 15.3031 3.64681 16.6982 2.73663 17.4475L1.40538 18.5434C0.458002 19.3234 0.215689 20.6608 0.829252 21.7235L3.45788 26.2764C4.0715 27.3391 5.35075 27.7979 6.5 27.3675L8.11463 26.7626C9.22081 26.3481 10.4281 27.0473 10.6219 28.2101L10.9054 29.9109C11.1071 31.1214 12.1443 32 13.3714 32H18.6286C19.8557 32 20.8928 31.1214 21.0945 29.911L21.3779 28.2103C21.5721 27.0454 22.7811 26.3489 23.8853 26.7627L25.5 27.3676C26.6492 27.798 27.9285 27.3392 28.5421 26.2764L31.1708 21.7235C31.7843 20.6608 31.5419 19.3234 30.5946 18.5434ZM26.3771 25.0264L24.7624 24.4215C22.1812 23.4546 19.3643 25.0859 18.9121 27.7992L18.6286 29.5H13.3714L13.0879 27.7992C12.6349 25.0806 9.81381 23.4564 7.23763 24.4215L5.62294 25.0264L2.99438 20.4736L4.32556 19.3777C6.45363 17.6258 6.44919 14.3706 4.32556 12.6223L2.99438 11.5264L5.623 6.97356L7.23763 7.5785C9.81888 8.54537 12.6358 6.91412 13.0879 4.20081L13.3714 2.5H18.6286L18.912 4.20081C19.3651 6.91969 22.1863 8.54338 24.7623 7.5785L26.377 6.97356L29.0062 11.5258C29.0062 11.5258 29.006 11.526 29.0055 11.5264L27.6744 12.6222C25.5464 14.374 25.5506 17.6293 27.6743 19.3776L29.0056 20.4735L26.3771 25.0264ZM16 9.83331C12.5997 9.83331 9.83331 12.5997 9.83331 16C9.83331 19.4003 12.5997 22.1667 16 22.1667C19.4003 22.1667 22.1667 19.4003 22.1667 16C22.1667 12.5997 19.4003 9.83331 16 9.83331ZM16 19.6667C13.9782 19.6667 12.3333 18.0218 12.3333 16C12.3333 13.9782 13.9782 12.3333 16 12.3333C18.0218 12.3333 19.6667 13.9782 19.6667 16C19.6667 18.0218 18.0218 19.6667 16 19.6667Z" fill="#BFBFBF"/>
</g>
<defs>
<clipPath id="clip0_127_275">
<rect width="32" height="32" fill="white"/>
</clipPath>
</defs>
</svg>
