<svg width="32" height="32" viewBox="0 0 32 32" fill="none" xmlns="http://www.w3.org/2000/svg">
<path d="M29.468 7.02831L16.2884 2.05168C16.1025 1.98277 15.8974 1.98277 15.7116 2.05168L2.53189 7.02831C2.2123 7.14852 2 7.45444 2 7.79652V9.49185C2 9.94527 2.3669 10.3122 2.82031 10.3122H29.1797C29.6331 10.3122 30 9.94527 30 9.49185V7.79652C30 7.45444 29.7877 7.14852 29.468 7.02831Z" fill="#BFBFBF"/>
<path d="M5.28125 21.7968C4.37513 21.7968 3.64062 22.5313 3.64062 23.4374V24.2577C3.64062 24.7108 4.0079 25.0781 4.46094 25.0781H10.3225L11.9631 21.7968H5.28125Z" fill="#BFBFBF"/>
<path d="M26.7187 21.7968H20.0368L21.6772 25.0781H27.539C27.992 25.0781 28.3593 24.7108 28.3593 24.2577V23.4374C28.3593 22.5313 27.6248 21.7968 26.7187 21.7968Z" fill="#BFBFBF"/>
<path d="M3.64062 26.7187C2.73451 26.7187 2 27.4532 2 28.3593V29.1797C2 29.6327 2.36728 30 2.82031 30H7.86156L9.50219 26.7187H3.64062Z" fill="#BFBFBF"/>
<path d="M28.3594 26.7187H22.4973L24.1377 30H29.1797C29.6327 30 30 29.6327 30 29.1797V28.3593C30 27.4533 29.2655 26.7187 28.3594 26.7187Z" fill="#BFBFBF"/>
<path d="M9.38281 11.9531H6.10156V20.1564H9.38281V11.9531Z" fill="#BFBFBF"/>
<path d="M17.6406 11.9531H14.3047V20.1564H17.6406V11.9531Z" fill="#BFBFBF"/>
<path d="M25.8984 11.9531H22.6172V20.1564H25.8984V11.9531Z" fill="#BFBFBF"/>
<path d="M18.1477 21.7968H13.7976C12.2863 24.8194 11.2334 26.9252 9.69603 30H22.3039C19.1451 23.6822 20.4403 26.3819 18.1477 21.7968Z" fill="#BFBFBF"/>
</svg>
