<?xml version="1.0" encoding="utf-8"?>
<!-- Generator: Adobe Illustrator 26.3.1, SVG Export Plug-In . SVG Version: 6.00 Build 0)  -->
<svg version="1.1" id="Layer_1" xmlns="http://www.w3.org/2000/svg" xmlns:xlink="http://www.w3.org/1999/xlink" x="0px" y="0px"
	 viewBox="0 0 32 32" style="enable-background:new 0 0 32 32;" xml:space="preserve">
<style type="text/css">
	.st0{fill:#BFBFBF;}
</style>
<path class="st0" d="M28.8,17.18l-0.91-0.3c-0.02-0.01-0.03-0.01-0.04-0.04c-0.05-0.13-0.1-0.26-0.16-0.39
	c-0.01-0.02-0.01-0.03,0-0.05l0.44-0.86c0.18-0.35,0.11-0.77-0.16-1.04l-0.99-0.99c-0.28-0.27-0.7-0.34-1.04-0.16l-0.85,0.44
	c-0.02,0.01-0.04,0.01-0.06,0c-0.13-0.06-0.26-0.11-0.39-0.16c-0.03-0.01-0.03-0.02-0.04-0.04l-0.3-0.91
	c-0.12-0.37-0.46-0.62-0.86-0.62h-1.4c-0.4,0-0.73,0.24-0.85,0.62l-0.3,0.91c-0.01,0.02-0.01,0.03-0.04,0.04
	c-0.13,0.05-0.26,0.1-0.4,0.16c-0.02,0.01-0.03,0.01-0.05,0l-0.86-0.44c-0.35-0.18-0.77-0.11-1.04,0.16l-0.99,0.99
	c-0.27,0.28-0.34,0.7-0.16,1.04l0.44,0.85c0.01,0.02,0.01,0.03,0,0.06c-0.06,0.13-0.11,0.26-0.16,0.4
	c-0.01,0.02-0.01,0.03-0.04,0.04l-0.92,0.3c-0.18,0.06-0.32,0.17-0.43,0.3c-0.01-0.01-0.02-0.02-0.03-0.03l-0.81-0.84v-0.55
	c0.27-0.17,0.52-0.38,0.76-0.61c0.82-0.8,1.32-1.85,1.44-2.97c0.76-0.19,1.31-0.88,1.31-1.7c0-0.43-0.16-0.83-0.42-1.14V7.86
	c0-2.64-2.15-4.78-4.78-4.78h-2.74c-1.04,0-1.9,0.77-2.05,1.77c-1.02,0.12-1.82,1-1.82,2.06v2.74c-0.26,0.31-0.42,0.7-0.42,1.14
	c0,0.82,0.55,1.5,1.31,1.7c0.11,1.12,0.61,2.17,1.44,2.97c0.23,0.23,0.49,0.43,0.76,0.61v0.55l-0.81,0.85
	c-0.17,0.17-0.34,0.28-0.58,0.34l-3.44,0.91c-0.79,0.21-1.35,0.81-1.51,1.6l-1.21,6.15c-0.12,0.61,0.04,1.24,0.43,1.72
	c0.39,0.48,0.98,0.75,1.61,0.75h13.61h0h0h2.64c0.63,0,1.21-0.27,1.61-0.75c0.39-0.48,0.55-1.11,0.43-1.72l-0.2-1.03h0.7
	c0.39,0,0.73-0.25,0.86-0.62l0.3-0.91c0.01-0.03,0.02-0.03,0.04-0.04c0.13-0.05,0.26-0.1,0.39-0.16c0.02-0.01,0.03-0.01,0.05,0
	l0.86,0.44c0.35,0.18,0.77,0.11,1.04-0.16l0.99-0.99c0.27-0.28,0.34-0.7,0.16-1.04l-0.44-0.85c-0.01-0.02-0.01-0.04,0-0.06
	c0.06-0.13,0.11-0.26,0.16-0.39c0.01-0.03,0.02-0.03,0.04-0.04l0.91-0.3c0.38-0.12,0.62-0.46,0.62-0.86v-1.4
	C29.42,17.64,29.17,17.3,28.8,17.18L28.8,17.18z M9.16,5.67H9.3c0.23,0,0.42-0.19,0.42-0.42v-0.1c0-0.68,0.55-1.24,1.24-1.24h2.74
	c2.17,0,3.94,1.77,3.94,3.94V9.1c-0.16-0.05-0.33-0.07-0.51-0.07v-0.2c0-0.49-0.18-0.92-0.52-1.26c-0.35-0.34-0.78-0.52-1.26-0.51
	c-1.89,0.02-3.48-0.15-4.84-0.52c-0.03-0.01-0.05-0.01-0.08-0.01C9.99,6.49,9.39,6.64,8.99,7.55C8.79,8,8.68,8.56,8.59,9.04
	C8.53,9.03,8.47,9.03,8.41,9.03c-0.17,0-0.33,0.02-0.49,0.07V6.9C7.92,6.22,8.47,5.67,9.16,5.67z M8.79,12.1
	c-0.01-0.22-0.18-0.4-0.41-0.41c-0.5-0.01-0.88-0.41-0.88-0.91c0-0.5,0.41-0.91,0.91-0.91c0.12,0,0.24,0.02,0.36,0.07
	c0.12,0.05,0.25,0.04,0.36-0.02c0.11-0.06,0.19-0.17,0.21-0.29c0.01-0.08,0.03-0.16,0.04-0.24c0.18-1.03,0.41-2.04,0.94-2.04h0
	c1.43,0.38,3.07,0.56,5.02,0.54c0.26,0,0.48,0.09,0.67,0.27c0.19,0.18,0.28,0.4,0.28,0.66v0.7c0,0.14,0.07,0.26,0.18,0.34
	c0.11,0.08,0.25,0.1,0.38,0.05c0.1-0.03,0.2-0.05,0.3-0.05c0.5,0,0.91,0.41,0.91,0.91c0,0.5-0.39,0.9-0.88,0.91
	c-0.22,0.01-0.4,0.19-0.41,0.41c-0.06,2.14-1.84,3.89-3.99,3.89S8.85,14.24,8.79,12.1L8.79,12.1z M12.78,16.82
	c0.62,0,1.22-0.12,1.77-0.34v0.48c0,0.98-0.8,1.77-1.77,1.77s-1.77-0.8-1.77-1.77v-0.48C11.56,16.71,12.16,16.82,12.78,16.82z
	 M7.67,28.09l-0.85-7.13c0-0.03,0-0.05,0.02-0.07c0.02-0.02,0.04-0.03,0.07-0.03h11.76c0.03,0,0.04,0.01,0.07,0.03
	c0.02,0.02,0.02,0.03,0.02,0.07l-0.85,7.13H7.67z M21.86,27.64c-0.23,0.29-0.58,0.45-0.96,0.45h-2.17l0.84-7.03
	c0.03-0.27-0.05-0.52-0.23-0.72c-0.18-0.2-0.42-0.31-0.69-0.31H6.9c-0.27,0-0.51,0.11-0.69,0.31c-0.18,0.2-0.26,0.46-0.23,0.72
	l0.84,7.03H4.65c-0.37,0-0.72-0.16-0.96-0.45c-0.23-0.29-0.33-0.66-0.26-1.03l1.21-6.15c0.1-0.48,0.42-0.83,0.9-0.96l3.44-0.91
	c0.38-0.1,0.7-0.29,0.97-0.57l0.31-0.32c0.32,1.08,1.32,1.87,2.51,1.87s2.19-0.79,2.51-1.87l0.31,0.32
	c0.27,0.28,0.59,0.47,0.97,0.57l3.44,0.91c0.48,0.12,0.8,0.47,0.9,0.96l0.05,0.25c0,0.01,0,0.01,0,0.02l0.86,4.35c0,0,0,0.01,0,0.01
	l0.3,1.52C22.19,26.98,22.1,27.35,21.86,27.64z M20.8,18.73c0-1.07,0.87-1.93,1.93-1.93c1.07,0,1.93,0.87,1.93,1.93
	c0,1.07-0.87,1.93-1.93,1.93c-0.35,0-0.69-0.09-0.99-0.27l-0.02-0.09c-0.11-0.58-0.44-1.05-0.91-1.35
	C20.81,18.88,20.8,18.81,20.8,18.73L20.8,18.73z M28.59,19.43c0,0.03-0.01,0.05-0.04,0.06l-0.92,0.3c-0.26,0.09-0.46,0.28-0.56,0.54
	c-0.04,0.11-0.09,0.22-0.14,0.34c-0.12,0.25-0.11,0.53,0.01,0.79l0.44,0.86c0.01,0.02,0.02,0.04-0.01,0.07l-0.99,0.99
	c-0.03,0.03-0.06,0.02-0.07,0.01l-0.86-0.44c-0.25-0.13-0.53-0.13-0.78-0.01c-0.11,0.05-0.22,0.1-0.34,0.14
	c-0.26,0.1-0.46,0.3-0.55,0.57l-0.3,0.91c-0.01,0.03-0.03,0.04-0.06,0.04h-0.86l-0.63-3.19c0.25,0.08,0.52,0.11,0.79,0.11
	c1.53,0,2.77-1.24,2.77-2.77c0-1.53-1.24-2.77-2.77-2.77c-1.49,0-2.71,1.19-2.77,2.67l-2.79-0.73l0.66-0.22
	c0.27-0.09,0.47-0.28,0.56-0.54c0.04-0.11,0.09-0.23,0.14-0.34c0.12-0.25,0.11-0.53-0.01-0.79l-0.44-0.86
	c-0.01-0.02-0.02-0.04,0.01-0.07l0.99-0.99c0.03-0.03,0.06-0.02,0.07-0.01l0.86,0.44c0.25,0.13,0.53,0.13,0.78,0.01
	c0.11-0.05,0.22-0.1,0.34-0.14c0.26-0.1,0.45-0.3,0.54-0.56l0.3-0.91c0.01-0.03,0.03-0.04,0.06-0.04h1.4c0.03,0,0.05,0.01,0.06,0.04
	l0.3,0.92c0.09,0.26,0.28,0.46,0.54,0.56c0.11,0.04,0.23,0.09,0.34,0.14c0.25,0.12,0.53,0.11,0.79-0.01l0.86-0.44
	c0.02-0.01,0.04-0.02,0.07,0.01l0.99,0.99c0.03,0.03,0.02,0.06,0.01,0.07l-0.43,0.85c-0.13,0.25-0.14,0.53-0.02,0.79
	c0.05,0.11,0.1,0.22,0.14,0.34c0.1,0.26,0.3,0.46,0.57,0.54l0.91,0.3c0.03,0.01,0.04,0.03,0.04,0.06L28.59,19.43L28.59,19.43z
	 M12.78,23.13c-0.74,0-1.35,0.61-1.35,1.35c0,0.74,0.61,1.35,1.35,1.35c0.74,0,1.35-0.61,1.35-1.35
	C14.13,23.73,13.52,23.13,12.78,23.13z M12.78,24.99c-0.28,0-0.51-0.23-0.51-0.51c0-0.28,0.23-0.51,0.51-0.51s0.51,0.23,0.51,0.51
	C13.29,24.76,13.06,24.99,12.78,24.99z"/>
</svg>
