<svg width="41" height="41" viewBox="0 0 41 41" fill="none" xmlns="http://www.w3.org/2000/svg">
<path d="M10.2591 40.2944C10.2591 40.6909 9.94083 41.0091 9.54715 41.0091C9.1507 41.0091 8.83246 40.6909 8.83246 40.2944V34.7523C8.83246 34.3585 9.1507 34.0376 9.54715 34.0376C9.94093 34.0376 10.2591 34.3585 10.2591 34.7523V40.2944ZM0.714783 32.1767C0.321001 32.1767 0 31.8585 0 31.4648C0 31.071 0.321001 30.7501 0.714783 30.7501H6.25951C6.6532 30.7501 6.97144 31.071 6.97144 31.4648C6.97144 31.8586 6.6531 32.1767 6.25951 32.1767H0.714783ZM0.714783 10.259C0.321001 10.259 0 9.94074 0 9.54705C0 9.15061 0.321001 8.83237 0.714783 8.83237H6.25951C6.6532 8.83237 6.97144 9.15061 6.97144 9.54705C6.97144 9.94083 6.6531 10.259 6.25951 10.259H0.714783ZM0.714783 15.7392C0.321001 15.7392 0 15.421 0 15.0245C0 14.6308 0.321001 14.3125 0.714783 14.3125H6.25951C6.6532 14.3125 6.97144 14.6308 6.97144 15.0245C6.97144 15.421 6.6531 15.7392 6.25951 15.7392H0.714783ZM0.714783 21.2192C0.321001 21.2192 0 20.8983 0 20.5045C0 20.1108 0.321001 19.7926 0.714783 19.7926H6.25951C6.6532 19.7926 6.97144 20.1109 6.97144 20.5045C6.97144 20.8982 6.6531 21.2192 6.25951 21.2192H0.714783ZM0.714783 26.6993C0.321001 26.6993 0 26.3783 0 25.9846C0 25.5908 0.321001 25.2699 0.714783 25.2699H6.25951C6.6532 25.2699 6.97144 25.5909 6.97144 25.9846C6.97144 26.3783 6.6531 26.6993 6.25951 26.6993H0.714783ZM8.83237 0.714688C8.83237 0.320905 9.15061 0 9.54705 0C9.94083 0 10.259 0.320905 10.259 0.714688V6.25951C10.259 6.65329 9.94074 6.97153 9.54705 6.97153C9.15061 6.97153 8.83237 6.65329 8.83237 6.25951V0.714688ZM30.7501 0.714688C30.7501 0.320905 31.071 0 31.4648 0C31.8586 0 32.1767 0.320905 32.1767 0.714688V6.25951C32.1767 6.65329 31.8585 6.97153 31.4648 6.97153C31.071 6.97153 30.7501 6.65329 30.7501 6.25951V0.714688ZM25.27 0.714688C25.27 0.320905 25.5909 0 25.9847 0C26.3785 0 26.6994 0.320905 26.6994 0.714688V6.25951C26.6994 6.65329 26.3785 6.97153 25.9847 6.97153C25.5909 6.97153 25.27 6.65329 25.27 6.25951V0.714688ZM19.7926 0.714688C19.7926 0.320905 20.1109 0 20.5045 0C20.8982 0 21.2192 0.320905 21.2192 0.714688V6.25951C21.2192 6.65329 20.8983 6.97153 20.5045 6.97153C20.1108 6.97153 19.7926 6.65329 19.7926 6.25951V0.714688ZM14.3124 0.714688C14.3124 0.320905 14.6307 0 15.0244 0C15.4208 0 15.7391 0.320905 15.7391 0.714688V6.25951C15.7391 6.65329 15.4208 6.97153 15.0244 6.97153C14.6306 6.97153 14.3124 6.65329 14.3124 6.25951V0.714688ZM40.2943 30.7501C40.6909 30.7501 41.0091 31.071 41.0091 31.4648C41.0091 31.8586 40.6909 32.1767 40.2943 32.1767H34.7523C34.3585 32.1767 34.0376 31.8585 34.0376 31.4648C34.0376 31.071 34.3585 30.7501 34.7523 30.7501H40.2943ZM40.2943 8.83237C40.6909 8.83237 41.0091 9.15061 41.0091 9.54705C41.0091 9.94083 40.6909 10.259 40.2943 10.259H34.7523C34.3585 10.259 34.0376 9.94074 34.0376 9.54705C34.0376 9.15061 34.3585 8.83237 34.7523 8.83237H40.2943ZM40.2943 14.3124C40.6909 14.3124 41.0091 14.6307 41.0091 15.0244C41.0091 15.4209 40.6909 15.7391 40.2943 15.7391H34.7523C34.3585 15.7391 34.0376 15.4209 34.0376 15.0244C34.0376 14.6307 34.3585 14.3124 34.7523 14.3124H40.2943ZM40.2943 19.7926C40.6909 19.7926 41.0091 20.1109 41.0091 20.5045C41.0091 20.8982 40.6909 21.2192 40.2943 21.2192H34.7523C34.3585 21.2192 34.0376 20.8983 34.0376 20.5045C34.0376 20.1108 34.3585 19.7926 34.7523 19.7926H40.2943ZM40.2943 25.2699C40.6909 25.2699 41.0091 25.5909 41.0091 25.9846C41.0091 26.3783 40.6909 26.6993 40.2943 26.6993H34.7523C34.3585 26.6993 34.0376 26.3783 34.0376 25.9846C34.0376 25.5908 34.3585 25.2699 34.7523 25.2699H40.2943ZM32.1767 40.2944C32.1767 40.6909 31.8585 41.0091 31.4648 41.0091C31.071 41.0091 30.7501 40.6909 30.7501 40.2944V34.7523C30.7501 34.3585 31.071 34.0376 31.4648 34.0376C31.8586 34.0376 32.1767 34.3585 32.1767 34.7523V40.2944ZM26.6993 40.2944C26.6993 40.6909 26.3784 41.0091 25.9846 41.0091C25.5908 41.0091 25.2699 40.6909 25.2699 40.2944V34.7523C25.2699 34.3585 25.5908 34.0376 25.9846 34.0376C26.3784 34.0376 26.6993 34.3585 26.6993 34.7523V40.2944ZM21.2192 40.2944C21.2192 40.6909 20.8983 41.0091 20.5045 41.0091C20.1108 41.0091 19.7926 40.6909 19.7926 40.2944V34.7523C19.7926 34.3585 20.1109 34.0376 20.5045 34.0376C20.8982 34.0376 21.2192 34.3585 21.2192 34.7523V40.2944ZM15.7391 40.2944C15.7391 40.6909 15.4208 41.0091 15.0244 41.0091C14.6306 41.0091 14.3124 40.6909 14.3124 40.2944V34.7523C14.3124 34.3585 14.6307 34.0376 15.0244 34.0376C15.4208 34.0376 15.7391 34.3585 15.7391 34.7523V40.2944Z" fill="#D8B9C3"/>
<path fill-rule="evenodd" clip-rule="evenodd" d="M9.54706 6.25955H31.4647C33.2717 6.25955 34.7523 7.73745 34.7523 9.54709V31.4648C34.7523 33.2717 33.2717 34.7523 31.4647 34.7523H9.54706C7.73742 34.7523 6.25952 33.2717 6.25952 31.4648V9.54709C6.25952 7.73745 7.73742 6.25955 9.54706 6.25955Z" fill="#4D4C7D"/>
<path fill-rule="evenodd" clip-rule="evenodd" d="M12.3727 6.25949H15.2287C17.0357 6.25949 18.5162 7.73739 18.5162 9.54703V31.4648C18.5162 33.2717 17.0357 34.7522 15.2287 34.7522H12.3727C14.1822 34.7522 15.6628 33.2717 15.6628 31.4648V9.54703C15.6628 7.73739 14.1821 6.25949 12.3727 6.25949Z" fill="#363062"/>
<path fill-rule="evenodd" clip-rule="evenodd" d="M11.9229 11.1623H29.0851C29.5031 11.1623 29.8456 11.5048 29.8456 11.9228V29.085C29.8456 29.503 29.503 29.8455 29.0851 29.8455H11.9229C11.5048 29.8455 11.1624 29.5029 11.1624 29.085V11.9228C11.1624 11.5048 11.5048 11.1623 11.9229 11.1623Z" fill="#D8B9C3"/>
<path fill-rule="evenodd" clip-rule="evenodd" d="M26.2328 11.1625H29.0859C29.5039 11.1625 29.8464 11.505 29.8464 11.923V29.0852C29.8464 29.5033 29.5038 29.8457 29.0859 29.8457H26.2328C26.6507 29.8457 26.9932 29.5032 26.9932 29.0852V11.923C26.9932 11.505 26.6508 11.1625 26.2328 11.1625Z" fill="#C2A5AF"/>
<path d="M18.7732 15.2214V14.2855C18.7732 13.8917 19.0941 13.5735 19.4879 13.5735C19.8817 13.5735 20.2026 13.8918 20.2026 14.2855V15.2214H21.694V14.2855C21.694 13.8917 22.0122 13.5735 22.4087 13.5735C22.8024 13.5735 23.1206 13.8918 23.1206 14.2855V15.3077C23.6626 15.4398 24.1481 15.7203 24.5338 16.1005C25.0813 16.6453 25.4211 17.3949 25.4211 18.2202C25.4211 19.1048 25.0274 19.9354 24.3504 20.5045C25.0274 21.0735 25.4211 21.9041 25.4211 22.7915C25.4211 23.6141 25.0813 24.3637 24.5338 24.9086C24.1481 25.2915 23.6627 25.572 23.1206 25.7041V26.7236C23.1206 27.1173 22.8023 27.4383 22.4087 27.4383C22.0122 27.4383 21.694 27.1173 21.694 26.7236V25.7904H20.2026V26.7236C20.2026 27.1173 19.8817 27.4383 19.4879 27.4383C19.0941 27.4383 18.7732 27.1173 18.7732 26.7236V25.7904H16.3027C15.9089 25.7904 15.588 25.4694 15.588 25.0757C15.588 24.6819 15.9089 24.361 16.3027 24.361H17.0499V20.5046V16.648H16.3027C15.9089 16.648 15.588 16.3297 15.588 15.936C15.588 15.5395 15.9089 15.2213 16.3027 15.2213C17.1254 15.2214 17.9506 15.2214 18.7732 15.2214ZM22.4086 21.2192H18.4765V24.3611H22.4086C22.8454 24.3611 23.2419 24.1859 23.5304 23.9C23.8163 23.6168 23.9943 23.2231 23.9943 22.7916C23.9943 22.3573 23.8163 21.9663 23.5304 21.6804C23.2419 21.3945 22.8453 21.2192 22.4086 21.2192ZM22.4086 16.648H18.4765V19.7925H22.4086C22.8454 19.7925 23.2419 19.6145 23.5304 19.3286C23.8163 19.0455 23.9943 18.6517 23.9943 18.2202C23.9943 17.7887 23.8163 17.3949 23.5304 17.109C23.2419 16.826 22.8453 16.648 22.4086 16.648Z" fill="white"/>
</svg>
